<svg xmlns="http://www.w3.org/2000/svg" width="1176" height="1706.667" version="1.0" viewBox="0 0 882 1280"><path d="M241.4 2.7c-4.1 3.7-7.4 8.4-11.5 16.3-3.2 6.1-3.4 7.1-3.4 16 .1 10.9 2.4 20.8 8.5 36.5 2.2 5.5 3.6 10.2 3.2 10.6-.4.3-5 3.7-10.2 7.5-37.1 26.9-94.9 74.4-136 112.1-16.9 15.4-74.7 74.1-82.3 83.4-2 2.5-4.9 7.2-6.4 10.5C1 300.5.5 302.8.5 309.5c0 7.4.3 8.5 4.1 15.5 3.4 6.3 4.8 7.9 9 10.2 7.1 3.9 14.4 5.3 21.3 3.9 8.9-1.8 16.7-6.2 31-17.8 16.9-13.7 21.7-17.1 26.4-18.5 6.3-1.9 7.8-.5 15.2 14.7 9.7 20 15.3 24.7 29.1 24.9 6 0 8-.4 13.7-3.2 7.5-3.7 11.6-7.9 21.4-22.1 8.2-11.6 18.4-22.6 23.7-25.3 3.2-1.6 5.3-1.9 10.6-1.6 11.2.8 21.3 6.6 37.2 21.3 12.6 11.7 20.8 12.5 30.3 3 3.7-3.8 7.3-10.7 17.5-33.8 4.6-10.3 11.9-21.3 13.2-19.7.5.6 37.8 149.4 37.5 149.7-.1.1-7.9 1.4-17.2 2.8-52.3 8.1-77 16.9-83.5 29.6-3.4 6.5-2.7 10.3 5.6 31.2 37 93.6 64.5 188.5 76.9 265.1 12.4 77 14.2 140.4 6.4 222.1-1.1 11.5-4.2 40.1-6.9 63.5-10.7 92.6-11.5 103.2-11.5 160.5v47l2.7 4.7c7.6 12.8 29.9 21.9 72.8 29.8 47 8.7 99.2 12.4 172.5 12.5 80.1 0 138.8-4.7 187.5-15.1 35.5-7.6 53.7-16.3 60.3-28.9 2.1-3.9 2.2-4.9 2.2-47.5 0-54-1.4-72.4-12-163.5-4.5-38.4-7.3-66.2-9.7-94.5-1.7-20.9-1.7-94.5 0-115 4.9-57.8 13-105.2 28.2-164.5 13.9-54.1 35.1-118.7 58.1-176.5 8.8-22.1 9.3-25.9 4.1-33.1-1.8-2.5-5.6-5.9-8.5-7.7-50.5-30.6-303.3-43.6-498.2-25.6l-7 .6-19.1-76.6c-13.1-52.4-18.7-76.6-17.8-76.2.8.3 8.5 5.2 17.1 10.9 25 16.5 34.4 20.6 43.8 18.8 9.3-1.7 13.7-7.2 15.4-19.1 3.4-23.3 15.9-40.7 31.5-44 4.4-.9 10.2-.4 38.6 3 20 2.5 35.8 4 39.1 3.7 10.7-.9 15.7-4.3 34.4-23.3 10.2-10.3 18-17.5 19.6-17.9 1.6-.4 7.8.7 16.5 3 14.9 4 19.8 4.1 25.6.8 4.3-2.6 7-8.4 7-15.2 0-9.8-4.1-16.8-13.6-23.6-26.2-18.5-82.6-35.3-205.1-61-86.7-18.2-106.8-22.4-107.1-22.7-.1-.2-2.4-7.5-4.9-16.3-5.7-19.4-7.6-23.8-15-34C260.2 4.1 255.3 0 248.3 0c-2.8 0-4.7.8-6.9 2.7zm428.1 421.7c73.8 4.1 128.2 10.4 162 18.7 9.6 2.4 23.5 7.1 23.5 8 0 1.1-12.9 5.5-24 8.2-79.7 19.5-268.9 26.8-420 16.1-12.4-.9-24.3-1.9-26.4-2.3l-4-.6-5.2-20.8c-3.5-14.2-4.8-21-4-21.2 5.1-1.8 80.2-6.4 127.1-7.9 26.9-.9 145 .4 171 1.8zm-317.4 27.1 4.6 18.5h-2.3c-6.6 0-48.9-6.8-61.9-9.9-12.6-3.1-27.6-8.1-27-9.1 1.6-2.6 31.2-10.2 54-13.9 7.2-1.1 15.5-2.4 18.5-2.9 10.3-1.8 9-3.4 14.1 17.3zm-39 35.5c10.2 1.7 25.4 3.9 33.8 5 8.4 1 15.4 2 15.6 2.2.5.5 46.5 184.6 46.8 187.1.2 1.7-.6 2.2-4.3 2.9-21.5 4.1-46.4 11.1-57.7 16.3-7.2 3.3-7.3 3.4-7.8 1.2-.3-1.2-1.7-7.8-3.1-14.7-9.8-47.7-31.1-119.4-53.9-181.5-5.2-14.3-9.5-26.3-9.5-26.6 0-.3 4.9.6 10.8 2.2 5.9 1.5 19.1 4.1 29.3 5.9zm532.8-2.9c-8.3 21-25.4 70.7-35.3 102.7-10.8 34.8-21.9 77.3-27.7 105.7-1.2 6-2.3 11.2-2.5 11.4-.2.2-1-.1-1.7-.7-1.9-1.6-18.1-7.8-28.3-10.7-52.4-15.2-142.5-23.6-221.7-20.7-35.9 1.4-65.3 3.7-90 7.1-4 .5-6 .4-6.3-.3-1.2-3.8-45.5-181.8-45.3-182.1.2-.2 8.3.3 17.9 1 89.6 6.8 203.8 7.2 297.5 1 58.7-3.9 116.7-11.7 140.5-18.9 2.5-.7 4.6-1.2 4.8-1.1.1.1-.7 2.7-1.9 5.6z"/></svg>